<svg xmlns="http://www.w3.org/2000/svg" width="512" height="512" fill="none" viewBox="0 0 512 512">
    <path fill="#00B900" d="M0 0H512V512H0z"/>
    <path fill="#fff" d="M80 256c0 97.202 78.798 176 176 176s176-78.798 176-176H80z"/>
    <path fill="#00B900" d="M194.516 313.481v-10.898h-31.025v49.537h11.68v-18.187h18.98v-10.898h-18.98v-9.554h19.345zm29.796 39.63c14.673 0 26.571-11.182 26.571-25.76 0-14.578-11.898-25.759-26.571-25.759-14.673 0-26.572 11.181-26.572 25.759 0 14.578 11.899 25.76 26.572 25.76zm0-11.04c-8.322 0-14.892-5.874-14.892-14.72s6.57-14.719 14.892-14.719 14.892 5.873 14.892 14.719-6.57 14.72-14.892 14.72zm56.002 11.04c14.673 0 26.572-11.182 26.572-25.76 0-14.578-11.899-25.759-26.572-25.759s-26.572 11.181-26.572 25.759c0 14.578 11.899 25.76 26.572 25.76zm0-11.04c-8.322 0-14.892-5.874-14.892-14.72s6.57-14.719 14.892-14.719 14.892 5.873 14.892 14.719-6.57 14.72-14.892 14.72zm52.061-39.488h-20.44v49.537h20.44c14.088 0 24.819-10.757 24.819-24.769 0-14.012-10.731-24.768-24.819-24.768zm0 38.639h-8.76v-27.741h8.76c8.029 0 13.577 5.378 13.577 13.87 0 8.492-5.548 13.871-13.577 13.871zM371.206 290.673c6.785 0 12.285 5.332 12.285 11.91 0 6.577-5.5 11.909-12.285 11.909s-12.285-5.332-12.285-11.909c0-6.578 5.5-11.91 12.285-11.91zm0 2.589c-5.31 0-9.614 4.173-9.614 9.321 0 5.147 4.304 9.32 9.614 9.32 5.31 0 9.615-4.173 9.615-9.32 0-5.148-4.305-9.321-9.615-9.321z"/>
    <path fill="#00B900" d="M366.399 297.664v9.061h2.137v-9.061h-2.137zm7.2 0h-3.739v9.061h3.739c2.577 0 4.54-1.967 4.54-4.531 0-2.563-1.963-4.53-4.54-4.53zm0 7.068h-1.603v-5.075h1.603c1.469 0 2.484.984 2.484 2.537 0 1.554-1.015 2.538-2.484 2.538z"/>
</svg>
