<?xml version="1.0" encoding="UTF-8"?>
<!DOCTYPE svg  PUBLIC '-//W3C//DTD SVG 1.1//EN'  'http://www.w3.org/Graphics/SVG/1.1/DTD/svg11.dtd'>
<svg width="3.937in" height="3.937in" clip-rule="evenodd" fill-rule="evenodd" image-rendering="optimizeQuality" shape-rendering="geometricPrecision" text-rendering="geometricPrecision" version="1.1" viewBox="0 0 394 394" xml:space="preserve" xmlns="http://www.w3.org/2000/svg">
  <rect x="1" width="392" height="394" fill="#2BB900"/>
  <g fill-rule="nonzero">
   <path d="m199 369c-70 0-126-19-126-42s56-42 126-42 126 19 126 42-56 42-126 42z" fill="#EBEBEB"/>
   <polygon points="172 137 250 136 247 184 172 184" fill="#3B328C"/>
   <polygon points="158 207 159 114 168 113 169 206" fill="#635BA7"/>
   <polygon points="168 113 174 118 174 206 169 206" fill="#3B328C"/>
   <polygon points="242 209 247 116 255 116 253 208" fill="#635BA7"/>
   <polygon points="255 116 262 120 259 208 253 208" fill="#3B328C"/>
   <polygon points="172 212 174 303 183 304 182 213" fill="#635BA7"/>
   <polygon points="183 304 189 299 188 213 182 213" fill="#3B328C"/>
   <polygon points="246 217 250 308 258 308 256 217" fill="#635BA7"/>
   <polygon points="258 308 264 303 262 217 256 217" fill="#3B328C"/>
   <polygon points="166 128 247 131 244 178 168 179" fill="#635BA7"/>
   <path d="m250 155c-2-3-4-6-7-8-25 6-51 7-77 2-1 1-2 3-3 4-2 4-4 7-5 10 31 12 62 5 92-8z" fill="#7ACFE7"/>
   <path d="m159 177c32 7 66 1 96-13-1-2-3-5-5-8-30 13-61 20-92 8-2 7-2 12-2 12s1 1 3 2z" fill="#FFBD48"/>
   <path d="m241 202c-22 9-47 12-71 9v12s40 9 72-1v-2l-1-18z" fill="#7ACFE7"/>
   <path d="m241 202-1-14c-22 9-47 12-70 7v15c24 3 49 0 71-9z" fill="#FFBD48"/>
   <path d="m171 179v6 10c23 4 48 1 70-7l-1-9s9-2 17-11l-2-4c-30 15-64 20-96 13 2 1 6 2 11 2h1z" fill="#7ACFE7"/>
   <path d="m243 147c-5-5-12-9-21-10-25-4-38 1-38 1s-11 3-19 11c26 5 52 4 77-2z" fill="#FFBD48"/>
   <path d="m136 109c3 6 10 10 22 2l-2-9c-7-2-15 1-19 6z" fill="#F9C1B9"/>
   <path d="m138 99c-2 2-3 6-1 10 5-6 12-8 19-6l-2-6s-10-4-16 3z" fill="#ED9996"/>
   <path d="m142 105c3-1 7-3 10-1 2 1 3 5 4 7h1c-1-3-2-6-4-8-3-2-8 0-10 2z" fill="#8E4F4F"/>
   <path d="m148 107c1-1 2-1 4-1 1 0 2 1 2 2 0 0 1 0 0-1-2-2-5-4-7-1v0z" fill="#8E4F4F"/>
   <path d="m265 75c1 6-4 14-18 13l-2-9c5-5 13-7 20-4z" fill="#F9C1B9"/>
   <path d="m257 69c3 1 7 2 8 6-7-3-15-1-20 4l-2-6s4-6 14-4z" fill="#ED9996"/>
   <path d="m258 74c-3 0-8 0-10 3-2 2-1 6 0 9h1c-1-2-1-5-1-7 1-4 6-4 10-4z" fill="#8E4F4F"/>
   <path d="m254 79c-3-1-6 2-6 5 0 0 1 1 1 0s1-2 1-3c1-1 2-2 4-1 0 0 1 0 0-1z" fill="#8E4F4F"/>
   <path d="m194 138c0 1 0 2-1 2 0 0 10 11 24 2v-8c-8 0-15 2-23 4z" fill="#F9C1B9"/>
   <path d="m221 121-28 6s2 6 1 11c8-3 15-4 23-4 0-3 3-10 4-13z" fill="#ED9996"/>
   <path d="m221 122c13-6 23-14 25-24 2-14 2-24-3-37s-7-19-21-21c-14-3-89-15-69 54l2 6c18 17 43 24 67 22z" fill="#F9C1B9"/>
   <path d="m154 100c2 6 5 14 8 18 6 7 22 13 41 10 6-1 12-3 18-6-25 2-49-5-67-22z" fill="#F4B2AB"/>
   <path d="m180 93c0 2 0 4-2 4-1 0-3-1-4-2 0-2 0-4 2-4 1 0 3 1 4 3z" fill="#111"/>
   <path d="m224 81c0 2 0 4-2 4-1 0-3-1-4-3 0-2 0-4 2-4 1 0 3 1 4 3z" fill="#111"/>
   <path d="m196 82v5c0 1 0 2 1 3s1 1 2 0l1-1c0-1 2-2 2 0 0 1 0 2-1 2v1c1-1 2-2 1-3 0-1-2-2-3-1-1 0-1 1-1 1-2 2-2-1-2-2s0-4-1-5z" fill="#8E4F4F"/>
   <path d="m200 102c0 3 4 3 5 3 3 0 4-3 4-6 0-1-1 0-1 0 0 2-1 4-3 4h-3c-1 0-1-1-2-2z" fill="#8E4F4F"/>
   <path d="m164 84c1-4 3-6 7-8v-1c-3 1-7 5-7 8z" fill="#8E4F4F"/>
   <path d="m215 64c3 0 6 0 9 1 1 0 1-1 1-1-3-2-7-2-10-1z" fill="#8E4F4F"/>
   <path d="m189 108c1 5-2 9-7 11-5 1-10-1-11-6s2-9 7-11c5-1 10 1 11 6z" fill="#ED9996"/>
   <path d="m237 95c1 5-2 9-7 11-5 1-10-1-11-6s2-9 7-11c5-1 10 1 11 6z" fill="#ED9996"/>
   <path d="m177 108c0 1 0 1-1 1 0 0-1 0-1-1s0-1 1-1c0 0 1 0 1 1z" fill="#8E4F4F"/>
   <path d="m184 112c0 1 0 1-1 1 0 0-1 0-1-1s0-1 1-1c0 0 1 0 1 1z" fill="#8E4F4F"/>
   <path d="m178 118c0 1 0 1-1 1 0 0-1 0-1-1s0-1 1-1c0 0 1 0 1 1z" fill="#8E4F4F"/>
   <path d="m186 104c0 1 0 1-1 1 0 0-1 0-1-1s0-1 1-1c0 0 1 0 1 1z" fill="#8E4F4F"/>
   <path d="m193 112c0 1 0 1-1 1 0 0-1 0-1-1s0-1 1-1c0 0 1 0 1 1z" fill="#8E4F4F"/>
   <path d="m219 97c0 1 0 1-1 1 0 0-1 0-1-1s0-1 1-1c0 0 1 0 1 1z" fill="#8E4F4F"/>
   <path d="m225 105c0 1 0 1-1 1 0 0-1 0-1-1s0-1 1-1c0 0 1 0 1 1z" fill="#8E4F4F"/>
   <path d="m229 95c0 1 0 1-1 1 0 0-1 0-1-1s0-1 1-1c0 0 1 0 1 1z" fill="#8E4F4F"/>
   <path d="m236 100c0 1 0 1-1 1 0 0-1 0-1-1s0-1 1-1c0 0 1 0 1 1z" fill="#8E4F4F"/>
   <path d="m229 101c0 1 0 1-1 1 0 0-1 0-1-1s0-1 1-1c0 0 1 0 1 1z" fill="#8E4F4F"/>
   <path d="m226 95c-8 2-16-3-18-11s3-16 11-18 16 3 18 11-3 16-11 18zm-45 12c-8 2-16-3-18-11s3-16 11-18 16 3 18 11-3 16-11 18zm12-19c-2-8-12-14-20-11-9 2-14 12-12 20 2 9 12 14 20 12s14-10 12-19c1-1 4-5 13-3 2 4 9 13 20 10 9-2 14-12 12-20-2-9-12-14-20-12-9 2-14 12-12 20 0 0-8-2-12 3z" fill="#635BA7"/>
   <path d="m133 58c-3 5-5 12-3 20v1c9 4 20 6 30 5 1-2 2-5 3-7-11-4-21-11-30-19z" fill="#673542"/>
   <path d="m197 58v1c2 3 11 13 19 12-8-18-20-35-37-46-16 6-27 15-27 15s0-16-5-14 1 16 1 16-7-11-9-8 6 12 6 12-8 4-13 13c9 8 19 14 30 19 2-5 3-9 2-13 0 0 12 7 22 9v-2 2c3 1 6 1 9 0 9-3 4-11 2-14v-1z" fill="#582938"/>
   <path d="m205 21c-4 0-9 0-14 1-4 1-8 2-11 3 17 11 29 27 37 46h1c3-1 5-3 6-4-3-16-9-32-18-45z" fill="#673542"/>
   <path d="m236 36c-4-5-15-14-31-16 10 13 16 28 18 45 2-4 0-9 0-9s11 18 22 14-4-27-10-34z" fill="#582938"/>
   <path d="m141 97s5-2 12-1c0 0 4-5 7-12-10 1-21-1-30-5 4 21 11 18 11 18z" fill="#582938"/>
   <path d="m198 58v-1 1z" fill="#F26952"/>
   <path d="m177 250 3 22c7-5 15-8 23-10v-13h-26z" fill="#0AB0BE"/>
   <path d="m183 302h19l1-39c-8 2-16 5-23 10l3 29z" fill="#51C0B1"/>
   <path d="m183 303c23 8 18-9 20-1 0 0-8 28-22 27-13-1 3-26 3-26z" fill="#635BA8"/>
   <path d="m195 317c5-7 7-16 7-16-7 2-19 0-19 0s-5 8-7 16c6-2 13-1 19 1z" fill="#EBE9F4"/>
   <path d="m189 305c2-2 5-4 5-8 0-1-1-2-2-1s-1 2-1 3c-1 2-1 4-1 6h-2v-6c0-1-1-9-3-6-1 2 1 5 2 7s2 3 3 5c1 1-1 2-2 1-2-3-7-12-3-14 6-3 5 12 4 14 0 1-2 1-2 0 0-3 1-7 2-10 1-1 3-2 4-1 4 4-2 10-5 11 0 0-1 0-1-1z" fill="#635BA8"/>
   <path d="m176 316c-2 6-1 10 4 11 6 0 11-4 15-10-6-2-13-3-19-1z" fill="#635BA8"/>
   <path d="m182 307c5 0 10-1 15 0 0 0 1 0 0-1-5-2-10-1-15 0z" fill="#635BA8"/>
   <path d="m180 311c5 0 10-1 15 0 0 0 1 0 0-1-5-2-10-1-15 0z" fill="#635BA8"/>
   <path d="m204 250 3 22c7-5 15-8 23-10v-13h-26z" fill="#0AB0BE"/>
   <path d="m210 302h19l1-39c-8 2-16 5-23 10l3 29z" fill="#51C0B1"/>
   <path d="m210 303c23 8 18-9 20-1 0 0-8 28-22 27-13-1 3-26 3-26z" fill="#635BA8"/>
   <path d="m222 317c5-7 7-16 7-16-7 2-19 0-19 0s-5 8-7 16c6-2 13-1 19 1z" fill="#EBE9F4"/>
   <path d="m215 305c2-2 5-4 5-8 0-1-1-2-2-1s-1 2-1 3c-1 2-1 4-1 6h-2v-6c0-1-1-9-3-6-1 2 1 5 2 7s2 3 3 5c1 1-1 2-2 1-2-3-7-12-3-14 6-3 5 12 4 14 0 1-2 1-2 0 0-3 1-7 2-10 1-1 3-2 4-1 4 4-2 10-5 11 0 0-1 0-1-1z" fill="#635BA8"/>
   <path d="m203 316c-2 6-1 10 4 11 6 0 11-4 15-10-6-2-13-3-19-1z" fill="#635BA8"/>
   <path d="m208 307c5 0 10-1 15 0 0 0 1 0 0-1-5-2-10-1-15 0z" fill="#635BA8"/>
   <path d="m207 311c5 0 10-1 15 0 0 0 1 0 0-1-5-2-10-1-15 0z" fill="#635BA8"/>
   <polygon points="259 220 257 235 282 197 282 184" fill="#FAB21B"/>
   <polygon points="153 227 158 320 167 320 164 227" fill="#FAB21B"/>
   <polygon points="167 320 173 315 170 227 164 227" fill="#F79828"/>
   <polygon points="260 226 263 320 272 320 269 227" fill="#FAB21B"/>
   <polygon points="272 320 278 315 276 218 269 227" fill="#F79828"/>
   <polygon points="257 235 110 235 110 250 259 250" fill="#F79828"/>
   <polygon points="257 235 259 250 279 214 279 201" fill="#F79828"/>
   <polygon points="116 250 121 343 130 343 127 250" fill="#FAB21B"/>
   <polygon points="130 343 136 338 133 250 127 250" fill="#F79828"/>
   <polygon points="237 250 242 343 251 343 248 250" fill="#FAB21B"/>
   <polygon points="251 343 257 338 254 250 248 250" fill="#F79828"/>
   <path d="m99 220 3 15h39c-3-4-7-11-10-15h-31z" fill="#FAB21B"/>
   <path d="m130 220c3 4 7 11 10 15h12c-3-4-8-11-11-15h-11z" fill="#FFBB43"/>
   <path d="m141 220c3 4 8 11 11 15h13c-2-4-6-11-8-15h-16z" fill="#FAB21B"/>
   <path d="m259 220h-82c2 5 6 10 9 15h71l2-15z" fill="#FAB21B"/>
   <path d="m157 220c2 4 6 11 8 15h21c-3-4-7-10-9-15h-21z" fill="#FFBB43"/>
   <polygon points="283 184 139 181 99 220 260 220" fill="#FFCB73"/>
   <path d="m226 188c-1 0-2-1-2-1 0-1 1-1 2-1s2 1 2 1c0 1-1 1-2 1zm-3 11c-1 0-2-1-2-1 0-1 1-1 2-1s2 1 2 1c0 1-1 1-2 1zm-5 13c-1 0-2-1-2-1 0-1 1-1 2-1s2 1 2 1c0 1-1 1-2 1zm-29-29-15 32h46l10-32h-42z" fill="#EBE9F4"/>
   <path d="m214 213c4-9 7-19 9-28 0 0-1-1-1 0-4 9-6 19-9 28 0 0 0 1 1 0z" fill="#F1583A"/>
   <path d="m181 206c10 1 28 1 38 0v-1c-10-1-28 0-38 0v1z" fill="#7ACFE7"/>
   <path d="m183 201c10 1 28 1 38 0v-1c-10-1-28 0-38 0v1z" fill="#7ACFE7"/>
   <path d="m186 196c9 1 26 0 35 0v-1c-9-1-26 0-35 0v1z" fill="#7ACFE7"/>
   <path d="m187 192c9 1 26 0 35 0v-1c-9-1-26 0-35 0v1z" fill="#7ACFE7"/>
   <path d="m188 188c9 1 26 0 35 0v-1c-9-1-26 0-35 0v1z" fill="#7ACFE7"/>
   <path d="m150 220-45-7s19-13 23-21l37 6s13-2 10 5-23 15-25 17z" fill="#3B328C"/>
   <path d="m164 200 9 2s-11 11-21 14l-44-6 19-17 37 8z" fill="#EBE9F4"/>
   <path d="m164 198 9 2s-11 11-21 14l-44-6 19-17 37 8z" fill="#EBE9F4"/>
   <path d="m151 212-46-7s20-14 25-17c5-2 38 4 38 4s8 1 6 5c-2 5-21 13-23 14z" fill="#635BA7"/>
   <path d="m105 205 46 7s2 5-1 8l-45-7s-2-2 0-8z" fill="#3B328C"/>
   <polygon points="148 188 148 188 147 189 147 189 147 189 148 188 148 189 148 189 147 189 148 189 149 189 149 189 148 190 148 190 148 190 149 190 149 190 148 191 148 191 148 191 149 190 150 191 149 191 149 191 149 191 150 191 150 192 149 192 149 192 149 192 150 192 151 192 150 193 150 193 150 193 151 192 151 193 150 193 150 193 150 193 151 193 152 193 151 194 151 194 151 194 152 194 152 194 151 195 151 195 151 195 152 195 153 195 152 195 152 196 152 196 153 195 153 196 152 196 152 196 152 196 153 196 153 196 153 197 153 197 153 197 154 197 154 197 153 197 153 198 153 198 154 197 154 198 153 198 153 198 154 198 154 198 155 198 153 199 153 199 154 199 155 199 155 199 154 200 154 200 155 200 155 199 156 200 155 200 155 200 155 200 156 200 156 201 155 201 155 201 155 201 156 201 157 201 156 202 156 202 156 202 157 201 157 202 156 202 156 202 156 202 157 202 158 203 156 203 156 203 156 204 158 203 158 203 157 204 157 204 157 204 158 204 159 204 158 205 158 205 158 205 159 204 159 205 158 205 158 205 158 205 159 205 159 205 159 206 159 206 159 206 160 206 160 206 159 206 159 207 159 207 160 206 160 207 159 207 159 208 159 208 161 207 161 208 160 208 160 208 160 208 161 208 161 208 160 209 160 209 161 209 161 208 162 209 161 209 161 210 161 210 162 209 162 210 161 210 161 210 161 210 162 210 163 210 162 211 162 211 162 211 163 210 163 211 162 212 162 212 162 212 163 211 164 212 163 212 163 212 163 212 164 212 164 212 163 213 163 213 163 213 164 213 165 213 164 214 164 214 164 214 165 213 165 214 164 214 164 214 164 214 165 214 165 214 165 215 165 215 165 215 166 215 166 215 165 216 164 216 165 216 166 215 166 216 166 216 166 217 166 217 167 216 167 217 166 217 166 217 166 217 167 217 167 217 167 218 166 218 167 218 168 218 168 218 161 221 141 191" fill="#F1583A"/>
   <path d="m163 220-2 1-20-30 3-1c4 11 11 21 19 30z" fill="#F1583A"/>
   <path d="m144 190 4-2h-1 1-1 1-1 1l-1 1 1-1h-1 1v1h-1 1v1h-1 1-1 1-1 1v1l-1 1 1-1h-1 1v1h-1 1v1h-1 1-1 1-1 1v1l-1 1 1-1h-1 1v1h-1 1v1h-1 1-1 1-1 1v1l-1 1 1-1h-1 1v1h-1 1v1h-1 1-1 1-1 1v1l-1 1 1-1h-1 1v1h-1 1v1h-1 1-1 1-1 1v1l-1 1 1-1h-1 1v1h-1 1v1h-1 1-1 1-1 1v1l-1 1 1-1h-1 1v1h-1 1v1h-1 1l-5 2c-8-9-15-20-19-30z" fill="#F26952"/>
   <polygon points="148 191 148 191 150 190 150 190 149 191" fill="#F1583A"/>
   <polygon points="151 195 151 195 152 194 153 195" fill="#F1583A"/>
   <polygon points="154 199 154 199 155 198 155 199" fill="#F1583A"/>
   <polygon points="157 204 157 203 158 203 158 203" fill="#F1583A"/>
   <polygon points="159 208 160 207 161 207 161 207 160 208" fill="#F1583A"/>
   <polygon points="162 212 162 212 164 211 164 211 163 212" fill="#F1583A"/>
   <polygon points="165 216 165 216 166 215 167 216" fill="#F1583A"/>
   <polygon points="149 191 149 191 150 191 150 191 149 192" fill="#F1583A"/>
   <polygon points="152 196 152 196 153 195 153 195" fill="#F1583A"/>
   <polygon points="155 200 155 200 156 199 156 200" fill="#F1583A"/>
   <polygon points="158 204 158 204 159 204 159 204" fill="#F1583A"/>
   <polygon points="160 208 161 208 161 208 162 208 161 208" fill="#F1583A"/>
   <polygon points="163 212 163 212 164 212 164 212" fill="#F1583A"/>
   <polygon points="166 217 166 216 167 216 167 216" fill="#F1583A"/>
   <polygon points="150 192 150 192 151 192 151 192" fill="#F1583A"/>
   <polygon points="153 196 153 196 154 196 154 196" fill="#F1583A"/>
   <polygon points="155 201 155 200 156 200 156 200 156 201" fill="#F1583A"/>
   <polygon points="158 205 158 205 159 204 159 204" fill="#F1583A"/>
   <polygon points="161 209 161 209 162 208 162 209" fill="#F1583A"/>
   <polygon points="164 213 164 213 165 213 165 213" fill="#F1583A"/>
   <polygon points="167 217 167 217 167 217 168 217" fill="#F1583A"/>
   <polygon points="150 193 150 193 151 192 151 193" fill="#F1583A"/>
   <polygon points="153 197 153 197 154 197 154 197" fill="#F1583A"/>
   <polygon points="156 201 156 201 157 201 157 201" fill="#F1583A"/>
   <polygon points="159 205 159 205 160 205 160 205" fill="#F1583A"/>
   <polygon points="161 210 161 210 162 209 162 209 162 210" fill="#F1583A"/>
   <polygon points="164 214 164 214 165 213 165 213" fill="#F1583A"/>
   <polygon points="167 218 167 218 168 217 168 218" fill="#F1583A"/>
   <polygon points="151 194 151 193 152 193 152 193" fill="#F1583A"/>
   <polygon points="153 198 154 198 154 197 154 197 154 198" fill="#F1583A"/>
   <polygon points="156 202 156 202 157 201 157 202" fill="#F1583A"/>
   <polygon points="159 206 159 206 160 206 160 206" fill="#F1583A"/>
   <polygon points="162 210 162 210 163 210 163 210" fill="#F1583A"/>
   <polygon points="165 214 165 214 166 214 166 214" fill="#F1583A"/>
   <polygon points="151 194 151 194 152 194 152 194" fill="#F1583A"/>
   <polygon points="148 189 148 189 148 188 149 188" fill="#F1583A"/>
   <polygon points="148 189 148 189 149 189 149 189 148 190" fill="#F1583A"/>
   <polygon points="148 190 148 190 149 190 149 190 149 190" fill="#F1583A"/>
   <polygon points="154 198 154 198 155 198 155 198" fill="#F1583A"/>
   <polygon points="157 203 157 202 158 202 158 202" fill="#F1583A"/>
   <polygon points="159 207 159 207 160 206 160 206 160 207" fill="#F1583A"/>
   <polygon points="162 211 162 211 163 210 163 211" fill="#F1583A"/>
   <polygon points="165 215 165 215 166 215 166 215" fill="#F1583A"/>
   <path d="m203 212v-2s-1 1-1 2h1z"/>
   <path d="m187 203c-1-1-1-2 0-4h-1l-2 4 15 9c-4-2-9-5-12-8z" fill="#FAB21B"/>
   <path d="m201 209v-1l-14-8c-1 1-1 2 0 4 3 3 8 6 12 8h1c-1-1 1-2 1-2z" fill="#FFCB73"/>
   <path d="m199 212h2s-1 0-1-1z" fill="#FFD4CC"/>
   <path d="m203 210c0-1-1-2-2-2 0 0-1 1 0 1 0 0-2 0-1 2h-1s1 0 1 1h1c0-1 1-2 1-2z" fill="#FFE1D9"/>
   <path d="m183 200-1 1v1l1 1v-1c-1 0-1-1-1-2z" fill="#F95D91"/>
   <path d="m185 201 1-2-1-1s-1 0-1 1l-1 1c0 1 1 2 1 2l1-1z" fill="#FA7098"/>
   <path d="m184 202-1 1h1l1-1h-1z" fill="#E3E5E4"/>
   <path d="m186 199-2 3h1l2-3h-1z" fill="#F1F3F2"/>
   <path d="m153 182c0 7 15 11 23 3 1-1 2-4 3-7-8-3-16-6-22-12-2 7-4 14-4 16z" fill="#ED9996"/>
   <path d="m181 131s-2-11-5-12-2 3-2 3-4-8-5-7 0 6 0 6-4-10-3-7c0 0-1 12 6 17 0 0-8 21-13 36 6 5 14 9 22 12 4-16 2-47 2-47z" fill="#F9C1B9"/>
   <path d="m241 179s12-7 17-11c0 0 4 6 7 12-8 1-15 5-23 7-1-5-1-8-1-8z" fill="#ED9996"/>
   <path d="m201 206c5 2 54 3 63-4 2-2 3-5 3-9-20 11-44 15-67 12z" fill="#F4B2AB"/>
   <path d="m242 187v1c0 4-28 2-28 2s-2-3-6-5-1 5-1 5-11 0-9 3 6 3 6 3-7 2-6 4c2 2 5 3 5 3s-7 2-3 4c23 2 47-1 67-12 0-4-2-9-3-14-8 1-15 5-23 7z" fill="#F9C1B9"/>
  </g>
</svg>
